<?xml version="1.0" encoding="UTF-8"?>
<svg width="800px" height="800px" viewBox="0 0 800 800" version="1.1" xmlns="http://www.w3.org/2000/svg">
    <g stroke="none" stroke-width="1" fill="none" fill-rule="evenodd">
        <path d="M400,0 C179.086,0 0,179.086 0,400 C0,620.914 179.086,800 400,800 C620.914,800 800,620.914 800,400 C800,179.086 620.914,0 400,0 Z" fill="#E9EAFD" fill-rule="nonzero"/>
        <path d="M400,100 C239.314,100 100,239.314 100,400 C100,560.686 239.314,700 400,700 C560.686,700 700,560.686 700,400 C700,239.314 560.686,100 400,100 Z" fill="#F3F4FF" fill-rule="nonzero"/>
        <path d="M400,200 C299.543,200 200,299.543 200,400 C200,500.457 299.543,600 400,600 C500.457,600 600,500.457 600,400 C600,299.543 500.457,200 400,200 Z" fill="#E9EAFD" fill-rule="nonzero"/>
        <path d="M400,300 C359.771,300 300,359.771 300,400 C300,440.229 359.771,500 400,500 C440.229,500 500,440.229 500,400 C500,359.771 440.229,300 400,300 Z" fill="#F3F4FF" fill-rule="nonzero"/>
    </g>
</svg> 